<?xml version="1.0" encoding="utf-8"?>
<!-- Generator: Adobe Illustrator 26.4.1, SVG Export Plug-In . SVG Version: 6.00 Build 0)  -->
<svg version="1.1" id="Layer_1" xmlns="http://www.w3.org/2000/svg" xmlns:xlink="http://www.w3.org/1999/xlink" x="0px" y="0px"
	 viewBox="0 0 900 240" style="enable-background:new 0 0 900 240;" xml:space="preserve">
<style type="text/css">
	.st0{fill:#D72D28;}
</style>
<g>
	<path class="st0" d="M156.94,77.4h-71V116h56v18.4h-56v56.8h-21.6v-132h92.6V77.4z"/>
	<path class="st0" d="M196.22,46.6v116.2c0,4.53,0.7,7.93,2.1,10.2c1.4,2.27,4.03,3.4,7.9,3.4c2.13,0,3.93-0.17,5.4-0.5
		c1.47-0.33,3.27-0.9,5.4-1.7l-2.2,15.4c-1.87,1.07-4.3,1.93-7.3,2.6c-3,0.67-5.83,1-8.5,1c-9.33,0-15.73-2.57-19.2-7.7
		c-3.47-5.13-5.2-12.03-5.2-20.7V46.6H196.22z"/>
	<path class="st0" d="M290.88,126.8c0-6.53-1.73-11.67-5.2-15.4c-3.47-3.73-8.27-5.6-14.4-5.6c-5.87,0-10.83,1.4-14.9,4.2
		c-4.07,2.8-7.03,7.33-8.9,13.6l-18-7c2.4-8.27,7.2-14.9,14.4-19.9s16.67-7.5,28.4-7.5c7.87,0,14.83,1.3,20.9,3.9
		c6.07,2.6,10.8,6.57,14.2,11.9c3.4,5.33,5.1,11.93,5.1,19.8v44.4c0,5.33,2.4,8,7.2,8c1.07,0,2.2-0.1,3.4-0.3
		c1.2-0.2,2.27-0.43,3.2-0.7l-1.2,14.2c-1.33,0.67-2.97,1.23-4.9,1.7c-1.93,0.47-4.17,0.7-6.7,0.7c-4,0-7.67-0.77-11-2.3
		c-3.33-1.53-5.93-3.87-7.8-7c-1.87-3.13-2.8-7.1-2.8-11.9v-2.2l3.6-0.2c-0.93,5.33-3.17,9.8-6.7,13.4c-3.53,3.6-7.77,6.27-12.7,8
		c-4.93,1.73-10,2.6-15.2,2.6c-9.2,0-16.83-2.27-22.9-6.8c-6.07-4.53-9.1-11.27-9.1-20.2c0-7.2,2.23-13.23,6.7-18.1
		c4.47-4.87,11.23-8.23,20.3-10.1l37.8-7.8v14.2l-26.8,5.8c-5.47,1.07-9.57,2.67-12.3,4.8c-2.73,2.13-4.1,5.27-4.1,9.4
		c0,4,1.4,7.13,4.2,9.4c2.8,2.27,6.67,3.4,11.6,3.4c3.07,0,6.07-0.43,9-1.3c2.93-0.87,5.57-2.23,7.9-4.1c2.33-1.87,4.2-4.23,5.6-7.1
		c1.4-2.87,2.1-6.3,2.1-10.3V126.8z"/>
	<path class="st0" d="M400.95,91.2h22.6l-38.2,100h-24.2l-38.2-100h23.4l27,82L400.95,91.2z"/>
	<path class="st0" d="M477.39,89.2c9.47,0,17.83,2.07,25.1,6.2c7.27,4.13,13,10.1,17.2,17.9c4.2,7.8,6.3,17.1,6.3,27.9
		s-2.1,20.1-6.3,27.9c-4.2,7.8-9.93,13.77-17.2,17.9c-7.27,4.13-15.63,6.2-25.1,6.2c-9.47,0-17.87-2.07-25.2-6.2
		c-7.33-4.13-13.07-10.1-17.2-17.9c-4.13-7.8-6.2-17.1-6.2-27.9s2.07-20.1,6.2-27.9c4.13-7.8,9.87-13.77,17.2-17.9
		C459.52,91.27,467.92,89.2,477.39,89.2z M477.39,106c-5.6,0-10.4,1.37-14.4,4.1c-4,2.73-7.1,6.7-9.3,11.9
		c-2.2,5.2-3.3,11.6-3.3,19.2s1.1,14,3.3,19.2c2.2,5.2,5.3,9.17,9.3,11.9c4,2.73,8.8,4.1,14.4,4.1c5.6,0,10.4-1.37,14.4-4.1
		c4-2.73,7.1-6.73,9.3-12c2.2-5.27,3.3-11.63,3.3-19.1c0-7.6-1.1-14-3.3-19.2c-2.2-5.2-5.3-9.17-9.3-11.9
		C487.79,107.37,482.99,106,477.39,106z"/>
	<path class="st0" d="M547.45,191.2v-100h18.6l1.6,19c2.4-6.67,6.1-11.83,11.1-15.5c5-3.67,11.1-5.5,18.3-5.5
		c2.13,0,4.1,0.17,5.9,0.5c1.8,0.33,3.37,0.97,4.7,1.9l-2.8,18.4c-1.2-0.53-2.7-0.97-4.5-1.3c-1.8-0.33-4.23-0.5-7.3-0.5
		c-3.87,0-7.67,1.13-11.4,3.4c-3.73,2.27-6.77,5.63-9.1,10.1c-2.33,4.47-3.5,9.97-3.5,16.5v53H547.45z"/>
	<path class="st0" d="M634.81,74.8c-4.8,0-8.5-1.17-11.1-3.5c-2.6-2.33-3.9-5.7-3.9-10.1s1.3-7.77,3.9-10.1
		c2.6-2.33,6.3-3.5,11.1-3.5s8.47,1.17,11,3.5c2.53,2.33,3.8,5.7,3.8,10.1s-1.27,7.77-3.8,10.1
		C643.28,73.63,639.61,74.8,634.81,74.8z M645.01,91.2v100h-21.6v-100H645.01z"/>
	<path class="st0" d="M733.53,91.2V108h-72.2V91.2H733.53z M701.13,61.6v99.2c0,5.07,1.27,8.83,3.8,11.3
		c2.53,2.47,5.93,3.7,10.2,3.7c3.47,0,6.43-0.57,8.9-1.7c2.47-1.13,4.7-2.63,6.7-4.5l4.4,15.2c-3.07,2.67-6.73,4.73-11,6.2
		c-4.27,1.47-8.93,2.2-14,2.2c-8.8,0-16.1-2.2-21.9-6.6s-8.7-11.8-8.7-22.2V67.6L701.13,61.6z"/>
	<path class="st0" d="M791.81,193.2c-9.73,0-18.27-2.07-25.6-6.2c-7.33-4.13-13.07-10.1-17.2-17.9c-4.13-7.8-6.2-17.1-6.2-27.9
		c0-10.93,2.03-20.27,6.1-28c4.07-7.73,9.73-13.67,17-17.8c7.27-4.13,15.5-6.2,24.7-6.2c9.46,0,17.53,2,24.2,6
		c6.67,4,11.77,9.5,15.3,16.5c3.53,7,5.3,15.03,5.3,24.1c0,2.27-0.07,4.33-0.2,6.2c-0.13,1.87-0.27,3.47-0.4,4.8h-78V132h68.4
		l-10.6,3.2c0-6.27-0.97-11.57-2.9-15.9c-1.93-4.33-4.7-7.63-8.3-9.9c-3.6-2.27-7.87-3.4-12.8-3.4c-5.6,0-10.43,1.37-14.5,4.1
		c-4.07,2.73-7.17,6.73-9.3,12c-2.13,5.27-3.2,11.7-3.2,19.3c0,7.6,1.13,14,3.4,19.2c2.27,5.2,5.53,9.13,9.8,11.8
		c4.27,2.67,9.27,4,15,4c6.13,0,11.2-1.3,15.2-3.9c4-2.6,7.13-6.17,9.4-10.7l17.2,7.6c-2.27,4.93-5.43,9.2-9.5,12.8
		c-4.07,3.6-8.83,6.33-14.3,8.2C804.34,192.26,798.34,193.2,791.81,193.2z"/>
</g>
</svg>
