<?xml version="1.0" encoding="utf-8"?>
<!-- Generator: Adobe Illustrator 26.4.1, SVG Export Plug-In . SVG Version: 6.00 Build 0)  -->
<svg version="1.1" id="Layer_1" xmlns="http://www.w3.org/2000/svg" xmlns:xlink="http://www.w3.org/1999/xlink" x="0px" y="0px"
	 viewBox="0 0 1152 1152" style="enable-background:new 0 0 1152 1152;" xml:space="preserve">
<style type="text/css">
	.st0{clip-path:url(#SVGID_00000107551825718395748120000015100602217710962361_);}
	.st1{clip-path:url(#SVGID_00000049193925275973573200000015150931785624310159_);}
	.st2{fill:#9B9B4B;}
	.st3{clip-path:url(#SVGID_00000044155808987064285870000011818202950874291097_);}
	.st4{fill:#B2B261;}
	.st5{fill:#C0C07C;}
	.st6{fill:#9B211C;}
	.st7{fill:#D72D28;}
	.st8{fill:#DF534E;}
	.st9{fill:#3B2008;}
</style>
<g>
	<defs>
		<rect id="SVGID_1_" x="164" y="606.7" width="258.7" height="213.3"/>
	</defs>
	<clipPath id="SVGID_00000033345763143946236440000013181265857192749978_">
		<use xlink:href="#SVGID_1_"  style="overflow:visible;"/>
	</clipPath>
	<g style="clip-path:url(#SVGID_00000033345763143946236440000013181265857192749978_);">
		<g>
			<defs>
				<path id="SVGID_00000059995956531136535740000015901228498382849972_" d="M422.3,819.1L343.4,789
					c-77.9-29.7-143.3-92.2-178.7-181.3l78.9,30.1C279,726.9,344.4,789.4,422.3,819.1z"/>
			</defs>
			<clipPath id="SVGID_00000128466413137658055030000005757821719926248090_">
				<use xlink:href="#SVGID_00000059995956531136535740000015901228498382849972_"  style="overflow:visible;"/>
			</clipPath>
			<g style="clip-path:url(#SVGID_00000128466413137658055030000005757821719926248090_);">
				<path class="st2" d="M422.3,819.1L343.4,789c-77.9-29.7-143.3-92.2-178.7-181.3l78.9,30.1C279,726.9,344.4,789.4,422.3,819.1"/>
			</g>
		</g>
	</g>
</g>
<g>
	<defs>
		<rect id="SVGID_00000175284569428954795190000012844060767796407206_" x="164" y="262.5" width="708" height="376.2"/>
	</defs>
	<clipPath id="SVGID_00000143608194385959012830000016507664314034267051_">
		<use xlink:href="#SVGID_00000175284569428954795190000012844060767796407206_"  style="overflow:visible;"/>
	</clipPath>
	<g style="clip-path:url(#SVGID_00000143608194385959012830000016507664314034267051_);">
		<path class="st4" d="M243.6,637.9l-78.9-30.1l627.7-345.2l78.9,30.1L243.6,637.9z"/>
	</g>
</g>
<path class="st5" d="M871.3,292.7c72.7,182.9-8.8,408.4-182.2,503.7c-173.3,95.3-372.8,24.3-445.5-158.6L871.3,292.7z"/>
<path class="st6" d="M815,323.6L322.6,594.4l-78.9-30.1l92.4-50.8l28.2-15.5l70.9-39l29-16l272-149.5L815,323.6z"/>
<path class="st6" d="M815,323.6c57.1,143.5-6.9,320.4-142.9,395.2c-136,74.8-292.4,19.1-349.5-124.4L815,323.6z"/>
<path class="st7" d="M338.5,584.7l-73.1-27.9l456.5-251l73.1,27.9L338.5,584.7z"/>
<path class="st8" d="M795,333.7c52.9,133-6.4,297-132.5,366.4c-126.1,69.3-271.1,17.7-324-115.3L795,333.7z"/>
<path class="st9" d="M467.5,585c0.8,1.2,1.5,2.5,2.1,3.8c0.6,1.3,1.2,2.6,1.6,3.9c0.4,1.3,0.8,2.6,1.1,3.8c0.2,1.3,0.4,2.5,0.5,3.7
	c0.1,1.2,0,2.3-0.2,3.3c-0.2,1.1-0.4,2-0.8,2.9c-0.4,0.9-0.8,1.7-1.3,2.3c-0.5,0.7-1.2,1.2-1.9,1.7c-0.7,0.4-1.5,0.8-2.3,1
	c-0.8,0.2-1.7,0.3-2.7,0.2c-0.9-0.1-1.9-0.2-2.9-0.5c-1-0.3-2.1-0.7-3.1-1.3s-2.1-1.2-3.1-2c-1-0.8-2-1.6-3-2.6c-1-1-1.9-2-2.8-3.1
	c-0.9-1.1-1.7-2.3-2.5-3.5c-0.8-1.2-1.5-2.5-2.1-3.8c-0.6-1.3-1.2-2.6-1.6-3.9c-0.4-1.3-0.8-2.6-1-3.8c-0.3-1.3-0.4-2.5-0.5-3.7
	c0-1.2,0-2.3,0.2-3.3c0.2-1.1,0.4-2,0.8-2.9s0.8-1.7,1.3-2.3c0.5-0.7,1.2-1.2,1.9-1.7c0.7-0.4,1.5-0.8,2.3-1
	c0.8-0.2,1.7-0.3,2.7-0.2s1.9,0.2,3,0.5c1,0.3,2,0.7,3.1,1.3c1,0.5,2.1,1.2,3.1,2c1,0.8,2.1,1.6,3,2.6c1,1,1.9,2,2.8,3.1
	C465.9,582.6,466.7,583.7,467.5,585z"/>
<path class="st9" d="M376.2,511.7c-1,7-11.7,11.1-23.7,9.3c-5.2-0.8-9.7-2.5-13.2-4.8c-1.2-0.8-2.3-1.7-3.2-2.7l28.2-15.5
	c1.5,0.6,3,1.3,4.2,2.1C373.8,503.1,376.9,507.4,376.2,511.7z"/>
<path class="st9" d="M473.6,455.6c-1.1,6.9-11.7,11.1-23.7,9.2c-4.1-0.6-7.9-1.9-11-3.5c-1.4-0.7-2.6-1.5-3.7-2.4l29-16
	c1.4,0.7,2.7,1.5,3.8,2.3C471.9,448.3,474.1,452,473.6,455.6z"/>
<path class="st9" d="M574.7,424.4c1.4,0.2,2.8,0.5,4.2,0.9s2.7,0.8,4,1.3c1.3,0.5,2.5,1.1,3.6,1.7c1.1,0.6,2.1,1.3,3.1,2.1
	s1.7,1.5,2.4,2.3c0.7,0.8,1.2,1.6,1.7,2.5c0.4,0.8,0.7,1.7,0.9,2.6c0.2,0.8,0.2,1.7,0,2.5c-0.1,0.8-0.4,1.6-0.8,2.4
	c-0.4,0.8-0.9,1.5-1.6,2.2c-0.7,0.7-1.4,1.3-2.3,1.9c-0.9,0.6-1.9,1.1-3,1.5c-1.1,0.4-2.3,0.8-3.5,1.1c-1.3,0.3-2.6,0.5-3.9,0.6
	c-1.4,0.1-2.8,0.1-4.2,0.1c-1.4-0.1-2.9-0.2-4.3-0.4c-1.4-0.2-2.8-0.5-4.2-0.9c-1.4-0.4-2.7-0.8-4-1.3c-1.3-0.5-2.5-1.1-3.6-1.7
	c-1.1-0.6-2.1-1.3-3.1-2.1c-0.9-0.7-1.7-1.5-2.4-2.3c-0.7-0.8-1.2-1.6-1.7-2.5c-0.4-0.8-0.7-1.7-0.9-2.6c-0.2-0.8-0.2-1.7,0-2.5
	s0.4-1.6,0.8-2.4c0.4-0.8,0.9-1.5,1.6-2.2c0.7-0.7,1.4-1.3,2.3-1.9c0.9-0.6,1.9-1.1,3-1.5c1.1-0.4,2.3-0.8,3.5-1.1
	c1.3-0.3,2.6-0.5,3.9-0.6c1.4-0.1,2.8-0.1,4.2-0.1C571.9,424.1,573.3,424.2,574.7,424.4z"/>
<path class="st9" d="M677.6,342.8c12,1.8,20.9,9,19.8,15.9c-1.1,7-11.7,11.1-23.7,9.3c-12-1.8-20.9-9-19.8-15.9
	C655,345.1,665.6,341,677.6,342.8z"/>
<path class="st9" d="M600.9,649.6c0.8,1.2,1.5,2.5,2.1,3.8c0.6,1.3,1.2,2.6,1.6,3.9c0.4,1.3,0.8,2.6,1,3.8c0.3,1.3,0.4,2.5,0.5,3.7
	c0,1.2,0,2.3-0.2,3.3c-0.2,1.1-0.4,2-0.8,2.9c-0.4,0.9-0.8,1.7-1.3,2.3c-0.5,0.7-1.2,1.2-1.9,1.7c-0.7,0.4-1.5,0.8-2.3,1
	c-0.8,0.2-1.7,0.3-2.7,0.2c-0.9-0.1-1.9-0.2-2.9-0.5c-1-0.3-2-0.7-3.1-1.3c-1-0.5-2.1-1.2-3.1-2c-1-0.8-2-1.6-3-2.6
	c-1-1-1.9-2-2.8-3.1c-0.9-1.1-1.7-2.3-2.5-3.5c-0.8-1.2-1.5-2.5-2.1-3.8c-0.6-1.3-1.2-2.6-1.6-3.9c-0.4-1.3-0.8-2.6-1.1-3.8
	c-0.2-1.3-0.4-2.5-0.5-3.7c0-1.2,0-2.3,0.2-3.3c0.2-1,0.4-2,0.8-2.9c0.4-0.9,0.8-1.7,1.3-2.3c0.5-0.7,1.2-1.2,1.9-1.7
	c0.7-0.5,1.5-0.8,2.3-1c0.8-0.2,1.7-0.3,2.7-0.2c0.9,0.1,1.9,0.2,2.9,0.5c1,0.3,2,0.7,3.1,1.3c1,0.5,2.1,1.2,3.1,2
	c1,0.8,2,1.6,3,2.6c1,1,1.9,2,2.8,3.1C599.3,647.2,600.1,648.4,600.9,649.6z"/>
<path class="st9" d="M645.1,503.8c0.8,1.2,1.5,2.5,2.1,3.8c0.6,1.3,1.2,2.6,1.6,3.9c0.4,1.3,0.8,2.6,1,3.8c0.3,1.3,0.4,2.5,0.5,3.7
	c0,1.2,0,2.3-0.2,3.3c-0.2,1.1-0.4,2-0.8,2.9c-0.4,0.9-0.8,1.7-1.3,2.3c-0.5,0.7-1.2,1.2-1.9,1.7c-0.7,0.4-1.5,0.8-2.3,1
	s-1.7,0.3-2.7,0.2c-0.9-0.1-1.9-0.2-2.9-0.5c-1-0.3-2.1-0.7-3.1-1.3c-1-0.5-2.1-1.2-3.1-2c-1-0.8-2-1.6-3-2.6c-1-1-1.9-2-2.8-3.1
	c-0.9-1.1-1.7-2.3-2.5-3.5s-1.5-2.5-2.1-3.8c-0.6-1.3-1.2-2.6-1.6-3.9c-0.4-1.3-0.8-2.6-1.1-3.8c-0.3-1.3-0.4-2.5-0.5-3.7
	c-0.1-1.2,0-2.3,0.2-3.3c0.2-1.1,0.4-2,0.8-2.9c0.4-0.9,0.8-1.7,1.3-2.3c0.5-0.7,1.2-1.2,1.9-1.7c0.7-0.4,1.5-0.8,2.3-1
	c0.8-0.2,1.7-0.3,2.7-0.2c1,0.1,1.9,0.2,3,0.5c1,0.3,2,0.7,3.1,1.3c1,0.5,2.1,1.2,3.1,2c1,0.8,2,1.6,3,2.6c1,1,1.9,2,2.8,3.1
	C643.5,501.4,644.3,502.6,645.1,503.8z"/>
<path class="st9" d="M773.1,513c0.8,1.2,1.5,2.5,2.1,3.8c0.6,1.3,1.2,2.6,1.6,3.9c0.4,1.3,0.8,2.6,1.1,3.8c0.2,1.3,0.4,2.5,0.5,3.7
	c0.1,1.2,0,2.3-0.2,3.3c-0.2,1.1-0.4,2-0.8,2.9c-0.4,0.9-0.8,1.7-1.3,2.3c-0.5,0.7-1.2,1.2-1.9,1.7c-0.7,0.4-1.5,0.8-2.3,1
	c-0.8,0.2-1.7,0.3-2.7,0.2c-0.9-0.1-1.9-0.2-2.9-0.5c-1-0.3-2-0.7-3.1-1.3c-1-0.5-2.1-1.2-3.1-2c-1-0.8-2.1-1.6-3-2.6
	c-1-1-1.9-2-2.8-3.1c-0.9-1.1-1.7-2.3-2.5-3.5c-0.8-1.2-1.5-2.5-2.1-3.8s-1.2-2.6-1.6-3.9c-0.4-1.3-0.8-2.6-1.1-3.8
	c-0.2-1.3-0.4-2.5-0.5-3.7c-0.1-1.2,0-2.3,0.2-3.3c0.2-1.1,0.4-2,0.8-2.9c0.4-0.9,0.8-1.7,1.3-2.3c0.5-0.7,1.2-1.2,1.9-1.7
	c0.7-0.4,1.5-0.8,2.3-1c0.8-0.2,1.7-0.3,2.7-0.2c0.9,0.1,1.9,0.2,3,0.5c1,0.3,2,0.7,3.1,1.3c1,0.5,2.1,1.2,3.1,2
	c1,0.8,2.1,1.6,3,2.6c1,1,1.9,2,2.8,3.1C771.5,510.6,772.3,511.7,773.1,513z"/>
<path class="st9" d="M783.8,401.7c0.8,1.2,1.5,2.5,2.1,3.8s1.2,2.6,1.6,3.9c0.4,1.3,0.8,2.6,1,3.8c0.3,1.3,0.4,2.5,0.5,3.7
	c0,1.2,0,2.3-0.2,3.3c-0.2,1.1-0.4,2-0.8,2.9c-0.4,0.9-0.8,1.7-1.3,2.3c-0.5,0.7-1.2,1.2-1.9,1.7c-0.7,0.4-1.5,0.8-2.3,1
	c-0.8,0.2-1.7,0.3-2.7,0.2c-1-0.1-1.9-0.2-3-0.5c-1-0.3-2-0.7-3.1-1.3s-2.1-1.2-3.1-2c-1-0.8-2-1.6-3-2.6c-1-1-1.9-2-2.8-3.1
	c-0.9-1.1-1.7-2.3-2.5-3.5c-0.8-1.2-1.5-2.5-2.1-3.8c-0.6-1.3-1.2-2.6-1.6-3.9c-0.4-1.3-0.8-2.6-1.1-3.8c-0.2-1.3-0.4-2.5-0.5-3.7
	c-0.1-1.2,0-2.3,0.2-3.3c0.2-1.1,0.4-2,0.8-2.9c0.4-0.9,0.8-1.7,1.3-2.3c0.5-0.7,1.2-1.2,1.9-1.7c0.7-0.4,1.5-0.8,2.3-1
	s1.7-0.3,2.7-0.2c0.9,0.1,1.9,0.2,2.9,0.5c1,0.3,2.1,0.7,3.1,1.3c1,0.5,2.1,1.2,3.1,2c1,0.8,2,1.6,3,2.6c1,1,1.9,2,2.8,3.1
	C782.2,399.4,783.1,400.5,783.8,401.7z"/>
</svg>
